<svg version="1.1" id="a" xmlns="http://www.w3.org/2000/svg" x="0" y="0" viewBox="0 0 2000 892.7" style="enable-background:new 0 0 2000 892.7" xml:space="preserve"><style>.st0{fill:#e2001a}</style><path d="M939.8 483.1V454c0-4.8-2.3-7.7-7.7-6.5l-32.7 5.4c-4.2.6-6 2.3-6 7.1v29.1c0 4.8 2.3 7.7 7.7 6.5l32.7-5.4c4.3-.6 6-2.3 6-7.1m157.5 224.1c0 3.6 2.3 6 6 6h33.3c3.5 0 6-2.3 6-6V589c0-49.3-22-79.1-83.2-79.1-21.4 0-50.5 3.6-71.3 9.5-6.5 1.7-8.3 3.6-8.3 10V707c0 3.6 2.3 6 6 6h33.3c3.6 0 6-2.3 6-6V550.1c7.7-1.7 20.8-3.6 31.6-3.6 29.7 0 41 13.1 41 47.5v112.8l-.4.4zm452.2-503.9c0-3.6-2.3-6-6-6h-33.3c-3.5 0-6 2.3-6 6v118.2c0 49.3 22 79.1 83.2 79.1 21.4 0 50.5-3.6 71.3-9.5 6.5-1.7 8.3-3.6 8.3-10V203.5c0-3.6-2.3-6-6-6h-33.3c-3.6 0-6 2.3-6 6v156.9c-7.7 1.7-20.8 3.6-31.6 3.6-29.7 0-41-13.1-41-47.5V203.6l.4-.3zm-448.6 0c0-3.6-2.3-6-6-6h-33.3c-3.6 0-6 2.3-6 6v118.2c0 49.3 22 79.1 83.2 79.1 21.4 0 50.5-3.6 71.3-9.5 6.5-1.7 8.3-3.6 8.3-10V203.5c0-3.6-2.3-6-6-6h-33.3c-3.6 0-6 2.3-6 6v156.9c-7.7 1.7-20.8 3.6-31.6 3.6-29.7 0-41-13.1-41-47.5V203.6l.4-.3zm490.8 394.5h-77.2V593c0-31 12.5-48.1 39.3-48.1 26.8 0 38 16 38 48.1v4.8zm42.7 2.4c0-59.5-26.2-90.3-82.6-90.3-48.1 0-82.6 32.7-82.6 90.3v27.3c0 61.2 32.1 89.1 95.7 89.1 22.5 0 41-4.8 50.5-7.7 5.4-1.7 8.3-4.2 9.5-8.9l4.1-15.4c1.7-7.1-1.7-8.9-7.7-8.3-6.5.6-31.6 3.5-45.8 3.5-37.4 0-61.2-6.5-61.2-47.5v-3.6h114.1c3.6 0 6-1.2 6-8.3v-20.2zm127.9 56.4c0 17.2-11.9 23.1-38.7 23.1-17.2 0-41-4.2-46.4-4.8-4.8-.6-6.5 1.2-8.3 6l-4.2 13.7c-2.3 7.1 0 9.5 4.2 11.3 14.3 5.4 39.8 10.8 62.4 10.8 50.5 0 74.3-23.3 74.3-60.6 0-39.8-21.4-49.3-45.2-56.4l-28.5-8.3c-17.3-4.8-24.3-8.9-24.3-23.8 0-16 12.5-20.8 36.8-20.8 15.4 0 36.2 4.2 41.6 4.8 4.8.6 6.5-1.2 8.3-6l4.2-13.7c2.3-7.1 0-9.5-4.2-11.3-14.3-5.4-38.1-10.8-57.6-10.8-45.8 0-71.3 23.7-71.3 58.3 0 29.7 11.9 46.4 40.4 54.7l32.7 9.5c20.3 5.2 23.8 11.2 23.8 24.3m-461.1 17.1c-10.8 1.2-21.4 2.3-30.2 2.3-36.8 0-44.6-19-44.6-51v-25.6c0-26.2 4.8-52.3 42.2-52.3 8.3 0 24.4 1.2 32.7 3.6-.1 0-.1 123-.1 123zm653.6-314.3c-7.1 1.7-22.5 3.6-32.7 3.6-28.5 0-42.2-14.8-42.2-52.3v-27.3c0-37.4 13.7-52.3 42.2-52.3 10 0 25.6 1.7 32.7 3.6v124.7zm-142.1-165.8c-37.4 0-63 3.6-93.9 11.3-4.8 1.2-6.5 4.2-6.5 10.2V391c0 3.6 2.3 6 6 6h33.3c3.5 0 6-2.3 6-6V234.7c14.3-2.9 31.6-4.2 46.4-4.2 6.5 0 8.9-2.3 10.8-7.7l6-20.8c1.2-4.8-1.2-8.3-7.7-8.3m-501.2-55.8c0-4.8-2.3-7.7-7.7-6.5l-31.6 5.4c-4.2.6-6 2.3-6 7.1v247.2c0 3.6 2.3 6 6 6h33.3c3.6 0 6-2.3 6-6V137.9zm-338.1 93.9c17.9 0 27.9 2.3 32.1 2.3 4.8 0 6.5-1.7 8.3-6.5l4.2-14.8c2.3-7.1 0-10-4.2-11.3-6.5-2.3-26.2-7.7-45.2-7.7-58.3 0-86.2 33.9-86.2 86.8v33.3c0 58.2 28.5 86.8 83.2 86.8 24.4 0 35-4.2 41.6-6.5 5.4-1.7 8.3-4.2 9.5-8.9l4.8-16c1.7-7.1-1.7-8.9-5.4-8.9-5.4 0-22.5 2.3-41 2.3-29.7 0-46.4-10-46.4-48.7v-33.3c0-38.7 16-48.7 44.6-48.7m430.3-34.5V138c0-4.8-2.3-7.7-7.7-6.5l-31.6 5.4c-4.2.6-6 2.3-6 7.1v186c0 42.8 16 70.7 66.6 70.7 17.9 0 29.1-3.6 35.6-6 5.4-1.7 8.3-4.2 9.5-8.9l4.8-16.6c1.7-7.1-1.7-8.9-5.4-8.9-5.4 0-16.6 2.3-35 2.3-20.2 0-31-10-31-34.5v-92.8h58.3c3.6 0 6-2.3 6-6v-26.2c0-3.6-2.3-6-6-6h-58.3l.2.4zm596 16c0-6.5-1.7-8.3-8.3-10.2-22.5-6-51.6-9.5-70.7-9.5-58.9 0-87.4 35-87.4 89.1v28.5c0 60.1 28.5 89.1 87.4 89.1 19 0 48.1-3.6 70.7-9.5 6.5-1.7 8.3-3.6 8.3-10V213.5zm-653.6 316.7c0-6.5-1.7-8.3-8.3-10-19-6-49.9-10-70.7-10-57 0-87.4 33.3-87.4 89.1V626c0 58.3 29.7 88 83.8 88 14.3 0 28.5-2.3 39.8-5.4l-2.3-1.7v7.1c0 26.8-13.7 33.9-39.8 33.9-30.2 0-48.7-4.2-57-5.4-4.8-.6-7.1 1.7-8.3 6.5l-3.6 15.4c-2.3 7.1 0 10.2 4.2 11.3 17.9 5.4 45.2 10 72.6 10 46.4 0 77.2-22 77.2-75.5v-180h-.2zm85.5-76c0-4.8-2.3-7.7-7.7-6.5l-31.6 5.4c-4.2.6-6 2.3-6 7.1v247.2c0 3.6 2.3 6 6 6h33.3c3.6 0 6-2.3 6-6V454.2zm-492.7 62.9c0-4.8-2.3-7.7-7.7-6.5L900 516c-4.2.6-6 2.3-6 7.1v183.1c0 3.6 2.3 7.1 6 7.1h34.5c2.3 0 4.8-3.6 4.8-7.1-.1 0-.1-189.1-.1-189.1zm1015.6 158.7c-7.1 1.7-22.5 3.6-32.7 3.6-28.5 0-42.2-14.8-42.2-52.3v-27.3c0-37.4 13.7-52.3 42.2-52.3 10 0 25.6 1.7 32.7 3.6v124.7zm45.2-146.2c0-6.5-1.7-8.3-8.3-10-22.5-6-51.6-9.5-70.7-9.5-58.9 0-87.4 35-87.4 89.1v28.5c0 60.1 28.5 89.1 87.4 89.1 19 0 48.1-3.6 70.7-9.5 6.5-1.7 8.3-3.6 8.3-10V529.6z"/><path class="st0" d="M665.1 481.2c-40.3-6.4-84.5-11.9-154.1-58.5 0 0-14-9.6-25 1.3 0 0-46.1 50.5-149.3 101.1-14 6.8-16 20.4-12.9 33.2 7.7 32.6 21.8 78.2 16.1 86.1-7.3 10.2-91.2 11.5-105 29.7-3.3 4.4-15.8 34.5 5.5 78.1 16.9 34.5 42.3 52.1 52.3 58 2.8 1.6 3.9 4.2 3.2 7-.6 2.5-6.5 31-8.4 38.2-1.3 4.8-5.8 7.3-10.9 7.6-6.3.4-29.1-1.7-51.2-7.9-3.2-.9-8.4-.7-4.2 5.2 5.4 7.7 18.8 22.2 38 27.3 38.8 10.5 49.9 3.8 57.6-11.9 6.1-12.5 15.6-50 18.2-68.1.9-6.3-1.7-11.9-7-15-22.5-13.2-76.5-47.8-66-93.9 3.3-14.5 71-16.9 92.9-21.1 22.5-4.2 34-11.8 25.3-48.4-5.8-23.8-13.1-49.1-16.3-64.3-1.9-9 1.3-17.3 10.9-23 8.9-5.2 21.2-12.2 35.2-20.5 12.7 2.2 33.4 6 48.4 9.6 11.9 2.9 17 6.7 17 24.3s0 44.1.3 56.1c.6 18.6 10.3 35.3 32.7 35.3s34.3-.4 43.6-.4c9.3 0 35.2-1.3 54.2-22 .9-1 4.1-2.3 6.7-1 7.9 4.1 29.5 18.6 40.7 33.2 0 0-1.3 20.6-31.4 50.5-1.7 1.7-2 4.5 3.8 3.8 12.9-1.5 40.6-9.3 52.2-32.4 16.7-33.4 2.6-47.4-9.2-57.3-10-8.4-25.9-23.3-44.5-31.8-7-3.2-20.9-.4-26.3 5.4-8 8.6-25.4 21.1-44.5 21.1h-22.8c-11.6 0-21.2 1.5-22.1-18.3-.9-19.5-.9-41.3-.9-58s-2-29.8-22.4-36.1c-11.2-3.3-23.8-7-32.9-9.5 16.4-11.5 32.7-24.4 46.2-38.1 0 0 92.8 51.8 198 56.3.9 0 2.2-.9 1.5-2.3-3.2-6.8-13.5-25.7-33.3-28.9l.1.3z"/><path class="st0" d="M547.1 684.5h-80.8c-11.2 0-12.8-2-16.6-21.8-3.8-19.8-9.9-47.1-14.8-61.9s-14.8-25.4-34-19.8c0 0 14.8 75.6 19.2 101.6 4.4 26 6.3 31.6 34.8 31.6h138.6c1.6 0 2.3-1 1.6-2.2-3.8-6.4-16.3-27.3-47.7-27.3l-.3-.2zM208.5 762.1c-12.4-23.8-27.6-53.1-37.2-72.3-9.3-18.6 13.5-31.1 33-55.3 16.4-20.4 8-40.1 4.9-45.9-.6-1-2-.6-2.6 0-30.4 30.5-46.1 45.1-85.6 53.5-16 3.3-48.9 5.1-73.7-26C21 583 38.1 536 61.1 510.1c75-84.9 108.6-133.2 104.7-232.4C162.7 201 81.2 129.2 28.2 89.9c-1.6-1.2-5.1-1.5-5.2 1.9-.6 10.9 1.6 36.4 28.5 59.9 33.6 29.7 70.7 73.1 78.8 122 9.2 54.7-10.9 126.1-81.6 201.7C11.1 515.7-2 549.1 1.6 586.3c1.9 19.6 9.2 35.2 18.8 46.7 34.5 44.4 84.2 40.7 105.7 36.4-3.6 7.6-1.6 18.6 13.7 40 24.9 34.5 60.5 104.8 68.5 119.5 1.5 2.6 2.6 1 3.2.1 14-21.5 10.9-39.8-3.2-66.9h.2zM413.7 98.5c-8.1 1.2 13.2 11.8 22.4 17 8.7 4.9 14.7 4.9 15.7 1.2 1.7-6.4 1-12.2.4-15-.3-1.2-.6-1.9-1.9-2.3-9.6-3.2-28.8-2-36.6-1v.1z"/><path class="st0" d="M81.3 86.6c40.7 35.2 71.3 63 97.1 117.8 38 80.6 16.1 160.4-9 213.9-26.6 56.4-73.3 92.8-92 121.6-13.5 20.6-17.2 49.4 9.3 66.5 61.7 39.6 182.6-114.6 198.6-215.1 4.5-28.5-.9-50.5-15.8-65.9-1-1-3.2-1.7-3.5.4-.9 8.1-3.8 30.2-11.1 59.6-17.3 70.7-52.2 130.9-113.3 181-33 27.2-52.6 4.9-31.1-17.7 52.2-55 83.3-94.5 103.7-146.6 20.2-51.5 41.4-157.6-31.8-258.2-38.3-52.7-78.7-83.4-131.9-130.6-1.2-1-3.8-1.2-3.9 1.9-.9 11.5.5 41.7 34.7 71.4z"/><path class="st0" d="M52.4 248c10.9 11.1 35.8 35.6 41.9 64.4 1.3 5.8 3.8 4.2 4.5 0 5.2-30.1 1.9-57.6-23.1-85.9-24.3-27.5-58.8-56.9-70.9-66.9-2.8-2.3-4.7-1.5-4.8 2.3-.3 11.2 1.3 35.8 18.3 53.1 1.3 1.3 31.6 30.1 33.9 33h.2zM441.9 275.3c-.7 4.9-1.3 12.2-1.2 15 0 5.4.4 23.3 13.8 36.8 10.9 10.9 34.3 31.8 42.6 39.1 1.9 1.7 3.2 1.3 3.5-1 .3-2.5.6-6.3 1-10.6.7-8.3 1.5-20.4-12.4-35.2-10.9-11.8-34.2-35.8-43.2-45.1-2.3-2.5-3.6-1.7-4.1 1.2v-.2z"/><path class="st0" d="M790.6 438.3c-11.8-16.4-29.1-35.5-45.8-44.8-7.4-4.1-15.7-4.8-22.1-.4-16.3 11.1-71.1 29.2-125.3-6.1 57.3-68.5 117.5-108.6 129.9-116.5 1.5-1 .9-2.3 0-2.8-19.3-11.3-44.8-3.3-78.7 25.7-19.6 16.9-51.6 47.5-70.1 65.4.7-12.9-.3-34.2-11.8-53.4 73.4-26 120-112.1 128.3-120 6-5.7 47-1 52.6 1.9 14.3 7.3-3.5 67.6 1.3 65 25.6-13.5 33.6-41.6 33.3-65.1 0-14.8-.9-29.8-40.9-35.8-32.3-4.8-57.4.6-66.6 4.7-2.2 1-4.1 3.2-4.4 3.9-38.2 79-103.1 111.2-125.6 120.5-29.4-27.9-47.8-46.2-47.8-46.2h35.9c13.7 0 30.4-2.5 23-21.7s-17.9-41.4-17.9-41.4 20.5-35.9 28.5-49.6 12.4-27.2-11.8-37.8c-24.1-10.5-42.6-13.4-54.5-15.6-11.1-2-10-4.8-12.9-10.5-3.9-7.4-5.7-10.6-20.5-13.7-17.4-3.6-52.1-9.3-52.1-9.3s-6.3-22.2-8.7-29.7c-2.5-7.4-9.9-6.8-21.1.6-11.2 7.7-118.8 72.7-128.3 176.5-3.3 37.2 2.8 68.5 13.8 94.1 20.8 48.3 61.2 81.1 72.3 89.4 1.7 1.3 2.9.9 3.2-1 .3-2.5.9-6.4 1.5-11.2.9-7.6 1.7-18.3-8.1-32-20.4-28.2-37.4-44.5-46.4-77.9-16-60.1 1.5-140 96.6-198.5 1-.6 1.3.4 1.3.4l6.3 20.2s.6.9 1.2.9c7.7 1 63.8 8 65 8.3 1.3.3 1.9 1.3 1.9 1.3l9 13.8s1.3 1.3 2.2 1.5c7.7 1.3 44.8 8.3 59.3 17 1.3.7.7 1.7.7 1.7L513 153.7s-21.7.6-28.8.6-12.7 2.5-7.4 10.2c5.2 7.7 9.3 13.7 21.4 13.7h14.1l11.2 26.9s-23.4-.6-38.8-.6c-18.3 0-29.5 5.7-28.2 20.8.9 10.9 20.5 31.3 68.2 74.6 21.1 19.3 24.7 29.8 20.1 80 0 0 33.3 35.9 78.7 48.3 32.9 9 69.7 10.6 104-4.4 0 0 28.5 18.2 39.3 39.8.3.6.4 2.6-.3 3.8-4.2 7-19.8 28.1-39 41.6-2.5 1.7-5.2 4.2-.9 5.1 11.6 2.2 37.5 2.8 61.9-23 21.2-22.4 12.7-38.7 2.3-52.9l-.2.1z"/><path class="st0" d="M368.9 275.3c-.7 4.9-1.2 12.2-1.2 15 0 5.4.4 23.3 13.8 36.8 10.9 10.9 34.3 31.8 42.6 39.1 1.9 1.7 3.2 1.3 3.3-1 .3-2.5.6-6.3 1-10.6.7-8.3 1.5-20.4-12.4-35.2-10.9-11.8-34.2-35.8-43.2-45.1-2.3-2.5-3.6-1.7-4.1 1.2l.2-.2z"/></svg>